# Blender v2.78 (sub 0) OBJ File: ''
# www.blender.org
mtllib ring.mtl
o Circle_Circle.004
v 0.000000 0.000000 -1.003046
v -0.195090 0.000000 -0.983831
v -0.382683 0.000000 -0.926925
v -0.555570 0.000000 -0.834515
v -0.707107 0.000000 -0.710152
v -0.831470 0.000000 -0.558616
v -0.923880 0.000000 -0.385729
v -0.980785 0.000000 -0.198136
v -1.000000 0.000000 -0.003046
v -0.980785 0.000000 0.192045
v -0.923880 0.000000 0.379638
v -0.831470 0.000000 0.552525
v -0.707107 0.000000 0.704061
v -0.555570 0.000000 0.828424
v -0.382683 0.000000 0.920834
v -0.195090 0.000000 0.977740
v 0.000000 0.000000 0.996954
v 0.195091 0.000000 0.977740
v 0.382684 0.000000 0.920834
v 0.555571 0.000000 0.828424
v 0.707107 0.000000 0.704061
v 0.831470 0.000000 0.552524
v 0.923880 0.000000 0.379637
v 0.980785 0.000000 0.192044
v 1.000000 0.000000 -0.003047
v 0.980785 0.000000 -0.198137
v 0.923879 0.000000 -0.385730
v 0.831469 0.000000 -0.558617
v 0.707106 0.000000 -0.710153
v 0.555569 0.000000 -0.834516
v 0.382682 0.000000 -0.926926
v 0.195089 0.000000 -0.983831
v 0.000000 -0.100000 -1.003046
v -0.195090 -0.100000 -0.983831
v -0.382683 -0.100000 -0.926925
v -0.555570 -0.100000 -0.834515
v -0.707107 -0.100000 -0.710152
v -0.831470 -0.100000 -0.558616
v -0.923880 -0.100000 -0.385729
v -0.980785 -0.100000 -0.198136
v -1.000000 -0.100000 -0.003046
v -0.980785 -0.100000 0.192045
v -0.923880 -0.100000 0.379638
v -0.831470 -0.100000 0.552525
v -0.707107 -0.100000 0.704061
v -0.555570 -0.100000 0.828424
v -0.382683 -0.100000 0.920834
v -0.195090 -0.100000 0.977740
v 0.000000 -0.100000 0.996954
v 0.195091 -0.100000 0.977740
v 0.382684 -0.100000 0.920834
v 0.555571 -0.100000 0.828424
v 0.707107 -0.100000 0.704061
v 0.831470 -0.100000 0.552524
v 0.923880 -0.100000 0.379637
v 0.980785 -0.100000 0.192044
v 1.000000 -0.100000 -0.003047
v 0.980785 -0.100000 -0.198137
v 0.923879 -0.100000 -0.385730
v 0.831469 -0.100000 -0.558617
v 0.707106 -0.100000 -0.710153
v 0.555569 -0.100000 -0.834516
v 0.382682 -0.100000 -0.926926
v 0.195089 -0.100000 -0.983831
v -0.000000 -0.011102 -0.780996
v -0.151771 -0.011102 -0.766048
v -0.297709 -0.011102 -0.721778
v -0.432206 -0.011102 -0.649888
v -0.550094 -0.011102 -0.553139
v -0.646842 -0.011102 -0.435252
v -0.718732 -0.011102 -0.300754
v -0.763002 -0.011102 -0.154816
v -0.777950 -0.011102 -0.003046
v -0.763002 -0.011102 0.148725
v -0.718732 -0.011102 0.294663
v -0.646842 -0.011102 0.429160
v -0.550094 -0.011102 0.547048
v -0.432206 -0.011102 0.643796
v -0.297708 -0.011102 0.715686
v -0.151770 -0.011102 0.759956
v 0.000000 -0.011102 0.774904
v 0.151771 -0.011102 0.759956
v 0.297709 -0.011102 0.715686
v 0.432206 -0.011102 0.643796
v 0.550094 -0.011102 0.547048
v 0.646842 -0.011102 0.429160
v 0.718732 -0.011102 0.294662
v 0.763002 -0.011102 0.148724
v 0.777950 -0.011102 -0.003046
v 0.763002 -0.011102 -0.154817
v 0.718732 -0.011102 -0.300755
v 0.646841 -0.011102 -0.435252
v 0.550093 -0.011102 -0.553140
v 0.432205 -0.011102 -0.649888
v 0.297707 -0.011102 -0.721778
v 0.151769 -0.011102 -0.766048
v -0.000000 -0.088897 -0.780996
v -0.151771 -0.088897 -0.766048
v -0.297709 -0.088897 -0.721778
v -0.432206 -0.088897 -0.649888
v -0.550094 -0.088897 -0.553139
v -0.646842 -0.088897 -0.435252
v -0.718732 -0.088897 -0.300754
v -0.763002 -0.088897 -0.154816
v -0.777950 -0.088897 -0.003046
v -0.763002 -0.088897 0.148725
v -0.718732 -0.088897 0.294663
v -0.646842 -0.088897 0.429160
v -0.550094 -0.088897 0.547048
v -0.432206 -0.088897 0.643796
v -0.297708 -0.088897 0.715686
v -0.151770 -0.088897 0.759956
v 0.000000 -0.088897 0.774904
v 0.151771 -0.088897 0.759956
v 0.297709 -0.088897 0.715686
v 0.432206 -0.088897 0.643796
v 0.550094 -0.088897 0.547048
v 0.646842 -0.088897 0.429160
v 0.718732 -0.088897 0.294662
v 0.763002 -0.088897 0.148724
v 0.777950 -0.088897 -0.003046
v 0.763002 -0.088897 -0.154817
v 0.718732 -0.088897 -0.300755
v 0.646841 -0.088897 -0.435252
v 0.550093 -0.088897 -0.553140
v 0.432205 -0.088897 -0.649888
v 0.297707 -0.088897 -0.721778
v 0.151769 -0.088897 -0.766048
vn 0.9952 0.0000 0.0980
vn -0.8819 0.0000 0.4714
vn 0.9952 0.0000 -0.0980
vn -0.7730 0.0000 0.6344
vn 0.9569 0.0000 -0.2903
vn -0.6344 0.0000 0.7730
vn 0.8819 0.0000 -0.4714
vn -0.4714 0.0000 0.8819
vn -0.0980 0.0000 -0.9952
vn 0.7730 0.0000 -0.6344
vn -0.2903 0.0000 0.9569
vn -0.2903 0.0000 -0.9569
vn 0.6344 0.0000 -0.7730
vn -0.0980 0.0000 0.9952
vn -0.4714 0.0000 -0.8819
vn 0.4714 0.0000 -0.8819
vn 0.0980 0.0000 0.9952
vn -0.6344 0.0000 -0.7730
vn 0.2903 0.0000 -0.9569
vn 0.2903 0.0000 0.9569
vn -0.7730 0.0000 -0.6344
vn 0.0980 0.0000 -0.9952
vn 0.4714 0.0000 0.8819
vn -0.8819 0.0000 -0.4714
vn 0.6344 0.0000 0.7730
vn -0.9569 0.0000 -0.2903
vn 0.7730 0.0000 0.6344
vn -0.9952 0.0000 -0.0980
vn 0.8819 0.0000 0.4714
vn -0.9952 0.0000 0.0980
vn 0.9569 0.0000 0.2903
vn -0.9569 0.0000 0.2903
vn 0.0049 0.9987 -0.0499
vn 0.0443 -0.9987 -0.0237
vn -0.0049 0.9987 -0.0499
vn 0.0388 -0.9987 -0.0318
vn -0.0146 0.9987 -0.0480
vn 0.0318 -0.9987 -0.0388
vn -0.0237 0.9987 -0.0443
vn 0.0237 -0.9987 -0.0443
vn -0.0318 0.9987 -0.0388
vn 0.0146 -0.9987 -0.0480
vn -0.0388 0.9987 -0.0318
vn 0.0049 -0.9987 -0.0499
vn -0.0443 0.9987 -0.0237
vn -0.0049 -0.9987 -0.0499
vn -0.0480 0.9987 -0.0146
vn -0.0146 -0.9987 -0.0480
vn -0.0499 0.9987 -0.0049
vn -0.0237 -0.9987 -0.0443
vn -0.0499 0.9987 0.0049
vn -0.0318 -0.9987 -0.0388
vn -0.0480 0.9987 0.0146
vn -0.0388 -0.9987 -0.0318
vn -0.0443 0.9987 0.0237
vn 0.0049 0.9987 0.0499
vn -0.0443 -0.9987 -0.0237
vn -0.0388 0.9987 0.0318
vn 0.0146 0.9987 0.0480
vn -0.0480 -0.9987 -0.0146
vn -0.0318 0.9987 0.0388
vn 0.0237 0.9987 0.0443
vn -0.0499 -0.9987 -0.0049
vn -0.0237 0.9987 0.0443
vn 0.0318 0.9987 0.0388
vn -0.0499 -0.9987 0.0049
vn -0.0146 0.9987 0.0480
vn 0.0388 0.9987 0.0318
vn -0.0480 -0.9987 0.0146
vn -0.0049 0.9987 0.0499
vn 0.0443 0.9987 0.0237
vn -0.0443 -0.9987 0.0237
vn 0.0049 -0.9987 0.0499
vn 0.0480 0.9987 0.0146
vn -0.0388 -0.9987 0.0318
vn 0.0146 -0.9987 0.0480
vn 0.0499 0.9987 0.0049
vn -0.0318 -0.9987 0.0388
vn 0.0237 -0.9987 0.0443
vn 0.0499 0.9987 -0.0049
vn -0.0237 -0.9987 0.0443
vn 0.0318 -0.9987 0.0388
vn 0.0480 0.9987 -0.0146
vn -0.0146 -0.9987 0.0480
vn 0.0388 -0.9987 0.0318
vn 0.0443 0.9987 -0.0237
vn -0.0049 -0.9987 0.0499
vn 0.0443 -0.9987 0.0237
vn 0.0388 0.9987 -0.0318
vn 0.0480 -0.9987 0.0146
vn 0.0318 0.9987 -0.0388
vn 0.0499 -0.9987 0.0049
vn 0.0237 0.9987 -0.0443
vn 0.0499 -0.9987 -0.0049
vn 0.0146 0.9987 -0.0480
vn 0.0480 -0.9987 -0.0146
usemtl None
s off
f 25//1 24//1 56//1 57//1
f 12//2 11//2 43//2 44//2
f 26//3 25//3 57//3 58//3
f 13//4 12//4 44//4 45//4
f 27//5 26//5 58//5 59//5
f 14//6 13//6 45//6 46//6
f 28//7 27//7 59//7 60//7
f 15//8 14//8 46//8 47//8
f 2//9 1//9 33//9 34//9
f 29//10 28//10 60//10 61//10
f 16//11 15//11 47//11 48//11
f 3//12 2//12 34//12 35//12
f 30//13 29//13 61//13 62//13
f 17//14 16//14 48//14 49//14
f 4//15 3//15 35//15 36//15
f 31//16 30//16 62//16 63//16
f 18//17 17//17 49//17 50//17
f 5//18 4//18 36//18 37//18
f 32//19 31//19 63//19 64//19
f 19//20 18//20 50//20 51//20
f 6//21 5//21 37//21 38//21
f 1//22 32//22 64//22 33//22
f 20//23 19//23 51//23 52//23
f 7//24 6//24 38//24 39//24
f 21//25 20//25 52//25 53//25
f 8//26 7//26 39//26 40//26
f 22//27 21//27 53//27 54//27
f 9//28 8//28 40//28 41//28
f 23//29 22//29 54//29 55//29
f 10//30 9//30 41//30 42//30
f 24//31 23//31 55//31 56//31
f 11//32 10//32 42//32 43//32
f 89//28 121//28 120//28 88//28
f 76//7 108//7 107//7 75//7
f 90//30 122//30 121//30 89//30
f 77//10 109//10 108//10 76//10
f 91//32 123//32 122//32 90//32
f 78//13 110//13 109//13 77//13
f 92//2 124//2 123//2 91//2
f 79//16 111//16 110//16 78//16
f 66//17 98//17 97//17 65//17
f 93//4 125//4 124//4 92//4
f 80//19 112//19 111//19 79//19
f 67//20 99//20 98//20 66//20
f 94//6 126//6 125//6 93//6
f 81//22 113//22 112//22 80//22
f 68//23 100//23 99//23 67//23
f 95//8 127//8 126//8 94//8
f 82//9 114//9 113//9 81//9
f 69//25 101//25 100//25 68//25
f 96//11 128//11 127//11 95//11
f 83//12 115//12 114//12 82//12
f 70//27 102//27 101//27 69//27
f 65//14 97//14 128//14 96//14
f 84//15 116//15 115//15 83//15
f 71//29 103//29 102//29 70//29
f 85//18 117//18 116//18 84//18
f 72//31 104//31 103//31 71//31
f 86//21 118//21 117//21 85//21
f 73//1 105//1 104//1 72//1
f 87//24 119//24 118//24 86//24
f 74//3 106//3 105//3 73//3
f 88//26 120//26 119//26 87//26
f 75//5 107//5 106//5 74//5
f 17//33 81//33 80//33 16//33
f 43//34 107//34 108//34 44//34
f 18//35 82//35 81//35 17//35
f 44//36 108//36 109//36 45//36
f 19//37 83//37 82//37 18//37
f 45//38 109//38 110//38 46//38
f 20//39 84//39 83//39 19//39
f 46//40 110//40 111//40 47//40
f 21//41 85//41 84//41 20//41
f 47//42 111//42 112//42 48//42
f 22//43 86//43 85//43 21//43
f 48//44 112//44 113//44 49//44
f 23//45 87//45 86//45 22//45
f 49//46 113//46 114//46 50//46
f 24//47 88//47 87//47 23//47
f 50//48 114//48 115//48 51//48
f 25//49 89//49 88//49 24//49
f 51//50 115//50 116//50 52//50
f 26//51 90//51 89//51 25//51
f 52//52 116//52 117//52 53//52
f 27//53 91//53 90//53 26//53
f 53//54 117//54 118//54 54//54
f 28//55 92//55 91//55 27//55
f 2//56 66//56 65//56 1//56
f 54//57 118//57 119//57 55//57
f 29//58 93//58 92//58 28//58
f 3//59 67//59 66//59 2//59
f 55//60 119//60 120//60 56//60
f 30//61 94//61 93//61 29//61
f 4//62 68//62 67//62 3//62
f 56//63 120//63 121//63 57//63
f 31//64 95//64 94//64 30//64
f 5//65 69//65 68//65 4//65
f 57//66 121//66 122//66 58//66
f 32//67 96//67 95//67 31//67
f 6//68 70//68 69//68 5//68
f 58//69 122//69 123//69 59//69
f 1//70 65//70 96//70 32//70
f 7//71 71//71 70//71 6//71
f 59//72 123//72 124//72 60//72
f 33//73 97//73 98//73 34//73
f 8//74 72//74 71//74 7//74
f 60//75 124//75 125//75 61//75
f 34//76 98//76 99//76 35//76
f 9//77 73//77 72//77 8//77
f 61//78 125//78 126//78 62//78
f 35//79 99//79 100//79 36//79
f 10//80 74//80 73//80 9//80
f 62//81 126//81 127//81 63//81
f 36//82 100//82 101//82 37//82
f 11//83 75//83 74//83 10//83
f 63//84 127//84 128//84 64//84
f 37//85 101//85 102//85 38//85
f 12//86 76//86 75//86 11//86
f 64//87 128//87 97//87 33//87
f 38//88 102//88 103//88 39//88
f 13//89 77//89 76//89 12//89
f 39//90 103//90 104//90 40//90
f 14//91 78//91 77//91 13//91
f 40//92 104//92 105//92 41//92
f 15//93 79//93 78//93 14//93
f 41//94 105//94 106//94 42//94
f 16//95 80//95 79//95 15//95
f 42//96 106//96 107//96 43//96
